<svg width="200" height="200" xmlns="http://www.w3.org/2000/svg">
  <path fill="#57a2c8" d="M0 0h200v200H0z"/>
  <path d="M0 14.92C0 6.72 5.9.02 14.89.02c4.83 0 8.4 1.76 10.4 4.02a12.5 12.5 0 0 1 2.92 6.26l-7.13.23a5.58 5.58 0 0 0-1.61-3.22c-1.03-.98-2.87-1.53-4.63-1.53-4.22 0-7.37 3.37-7.37 9.14 0 5.77 3.29 9.05 7.5 9.05 1.7 0 3.54-.54 4.6-1.48a5.54 5.54 0 0 0 1.78-3.63l7.13.27a10.53 10.53 0 0 1-1.14 3.84c-1.75 3.54-5.99 6.86-12.46 6.86C5.85 29.83 0 23.13 0 14.93" fill="#FFF" mask="url(#mask-2)" transform="translate(20.16 104.59)"/>
  <path fill="#FFF" d="M51.86 133.61h7.56V94.39h-7.56zM82.52 130.56h-.23c-.57 1.83-4.23 3.85-9.13 3.85-4.93 0-10.3-2.53-10.3-8.57 0-6.46 5.78-8.38 10.42-9.09 2.57-.4 5.74-.64 6.78-.83 1.11-.19 1.75-.55 2.05-1.29.09-.22.15-.53.15-.86 0-2.24-1.46-3.87-5.24-3.87-3.03 0-5.87 1.38-5.87 4.38l-6.57-.32c.64-6.41 5.93-9.36 12.77-9.36 7.17 0 12.82 3.08 12.82 9.3v19.7h-7.65v-3.04m-9.03-8.8c-1.31.44-3.3.92-3.3 3.59 0 2.43 2.25 3.62 5.15 3.62 4.9 0 7.2-2.79 7.2-5.58v-3.86c-.7.38-1.9.75-2.97.96-1.07.21-4.77.82-6.08 1.26M94.72 129.52c-1.02-1.5-1.35-3.26-1.36-5.2h6.57c.11.86.34 1.7.72 2.38.92 1.65 2.75 2.54 6 2.54 2.58 0 5.43-1.15 5.43-3.6 0-2.43-3.79-3-7.74-3.69-5.87-1.01-10.34-2.76-10.34-8.5 0-5.06 4.56-8.85 11.74-8.85 5.9 0 9.5 2.64 10.98 4.87a9.44 9.44 0 0 1 1.3 4.47h-6.61a4.94 4.94 0 0 0-.45-2.06c-.85-1.68-3.07-2.29-5.27-2.29-2.7 0-4.98 1.05-4.98 3.11 0 1.21.54 1.92 1.62 2.36 1.62.65 3.62.93 6.14 1.28 5.22.72 10.56 2.66 10.56 8.47 0 5.87-4.6 9.61-12.72 9.61-5.52 0-9.53-1.87-11.59-4.9M20.16 163.77c0-9.61 6.5-14.9 14.26-14.9 7.75 0 14.2 5.3 14.2 14.9 0 9.6-6.35 14.91-14.2 14.91-7.86 0-14.26-5.3-14.26-14.91zm14.26-9.33c-4.3 0-6.88 2.86-6.88 9.33 0 6.47 2.7 9.28 6.88 9.28 4.16 0 6.81-2.73 6.81-9.28 0-6.56-2.53-9.33-6.81-9.33zM69.85 177.88V160.6c0-2.75-.99-5.42-4.73-5.42a5.14 5.14 0 0 0-4.55 2.48 10.73 10.73 0 0 0-1.17 4.96v15.26h-7.56v-39.23h7.56V153h.11c1.36-2.4 4.38-4.13 8.13-4.13 3 0 5.07.81 6.83 2.38 2.12 1.9 2.95 4.68 2.95 8.72v17.9h-7.57M82.42 177.88h7.56v-39.23h-7.56zM94.87 173.66a8.97 8.97 0 0 1-1.3-5.08h6.57c.1.84.32 1.66.69 2.34.91 1.67 2.75 2.58 6.02 2.58 2.59 0 5.44-1.15 5.44-3.6 0-2.43-3.8-3-7.74-3.69-5.88-1.01-10.34-2.76-10.34-8.5 0-5.07 4.55-8.84 11.73-8.84 5.93 0 9.53 2.65 11 4.9.6.93 1.27 2.8 1.28 4.43h-6.61a4.96 4.96 0 0 0-.35-1.92c-.81-1.78-3.08-2.43-5.37-2.43-2.69 0-4.98 1.05-4.98 3.11 0 1.26.58 1.98 1.75 2.42 1.61.62 3.57.89 6.01 1.22 5.22.72 10.56 2.66 10.56 8.47 0 5.88-4.6 9.62-12.72 9.62-5.6 0-9.6-1.95-11.64-5.03M171.3 177.88V160.6c0-2.75-.99-5.42-4.73-5.42a5.14 5.14 0 0 0-4.55 2.48 10.75 10.75 0 0 0-1.16 4.96v15.26h-7.57v-28.1h7.28V153h.1c1.37-2.4 4.67-4.13 8.42-4.13 3 0 5.07.81 6.83 2.38 2.13 1.9 2.95 4.68 2.95 8.72v17.9h-7.56M121.37 163.77c0-9.61 6.54-14.9 14.3-14.9 7.75 0 14.24 5.3 14.24 14.9 0 9.6-6.39 14.91-14.24 14.91-7.86 0-14.3-5.3-14.3-14.91zm14.3-9.33c-4.3 0-6.92 2.86-6.92 9.33 0 6.47 2.75 9.28 6.92 9.28 4.16 0 6.86-2.73 6.86-9.28 0-6.56-2.58-9.33-6.86-9.33z"/>
</svg>